<svg width="67" height="67" viewBox="0 0 67 67" fill="none" xmlns="http://www.w3.org/2000/svg">
<foreignObject x="-7.55285" y="-7.55285" width="81.9226" height="81.9226"><div xmlns="http://www.w3.org/1999/xhtml" style="backdrop-filter:blur(3.78px);clip-path:url(#bgblur_0_2200_45_clip_path);height:100%;width:100%"></div></foreignObject><circle data-figma-bg-blur-radius="7.55285" cx="33.4085" cy="33.4085" r="33.4085" fill="#816D5B"/>
<g opacity="0.6">
<circle cx="33.4084" cy="33.4079" r="25.7551" fill="#83705E"/>
<circle cx="33.4084" cy="33.4079" r="25.3775" stroke="white" stroke-opacity="0.5" stroke-width="0.755285"/>
</g>
<path d="M32.6701 34.417C29.7569 34.417 26.8438 34.417 23.9307 34.417C23.8172 34.417 23.7037 34.4246 23.5902 34.417C23.2346 34.3943 23 34.1673 23 33.8495C23 33.5393 23.2346 33.3123 23.5902 33.2896C24.1426 33.2517 24.1426 33.2517 24.2258 32.6767C24.6949 29.2566 27.4037 26.3132 30.7936 25.5717C31.0962 25.5036 31.1568 25.4128 31.0811 25.1177C30.8919 24.4064 31.1795 23.6952 31.7696 23.2942C32.3523 22.9007 33.1089 22.9007 33.6915 23.3017C34.2742 23.7028 34.5541 24.4216 34.365 25.1328C34.2893 25.4204 34.3498 25.5112 34.6298 25.5717C38.1483 26.3586 40.789 29.355 41.1597 32.9718C41.19 33.2366 41.2808 33.3274 41.5305 33.2896C41.5835 33.282 41.6289 33.2896 41.6818 33.2896C42.1056 33.2971 42.3553 33.5014 42.3628 33.8344C42.3704 34.1824 42.1056 34.417 41.6743 34.417C39.7978 34.417 37.9137 34.417 36.0372 34.417C34.9173 34.417 33.7899 34.417 32.6701 34.417ZM33.283 24.7091C33.283 24.3913 33.0181 24.1265 32.7079 24.134C32.4052 24.1416 32.1631 24.3913 32.1555 24.694C32.1555 25.0193 32.4431 25.3371 32.7306 25.3296C33.0106 25.322 33.283 25.0193 33.283 24.7091Z" fill="white"/>
<path d="M31.1116 42.3696C30.0371 42.3696 28.9702 42.3621 27.8958 42.3772C27.631 42.3772 27.525 42.3318 27.5326 42.0292C27.5477 40.251 27.5477 38.4729 27.5326 36.6947C27.5326 36.1726 27.7596 35.8321 28.2363 35.6505C29.795 35.0452 31.2327 35.2571 32.5114 36.3391C32.8141 36.5964 33.1016 36.7401 33.4951 36.7099C33.7977 36.6872 34.1004 36.6947 34.403 36.7099C35.0689 36.7326 35.5532 37.1941 35.5607 37.8146C35.5683 38.4426 35.0765 38.942 34.403 38.9647C33.8582 38.9798 33.321 38.9647 32.7762 38.9723C32.3525 38.9798 32.1179 39.1841 32.1179 39.5322C32.1179 39.8802 32.3601 40.0921 32.7762 40.0997C33.2454 40.1072 33.7069 40.1072 34.176 40.0997C34.8116 40.0845 35.3489 39.8424 35.7953 39.396C36.7941 38.3972 37.7929 37.3984 38.7992 36.4072C38.9278 36.2861 39.0489 36.1575 39.2002 36.0591C39.6694 35.7565 40.2671 35.8397 40.6455 36.2559C41.0162 36.6645 41.0389 37.232 40.706 37.6784C40.6303 37.7767 40.5395 37.8675 40.4487 37.9583C39.4575 38.9496 38.4663 39.9332 37.4826 40.932C36.5065 41.9157 35.3413 42.4075 33.9566 42.3848C33.0032 42.3545 32.0574 42.3696 31.1116 42.3696Z" fill="white"/>
<path d="M26.405 39.54C26.405 40.3874 26.3975 41.2273 26.4126 42.0748C26.4126 42.3018 26.3596 42.385 26.1175 42.3774C25.6786 42.3547 25.2322 42.3774 24.7934 42.3699C24.3469 42.3623 24.1351 42.158 24.1351 41.7267C24.1275 40.2664 24.1275 38.806 24.1351 37.3457C24.1351 36.8992 24.3394 36.7025 24.7858 36.6949C25.2247 36.6874 25.6711 36.7101 26.1099 36.6874C26.3748 36.6722 26.4202 36.7857 26.4126 37.0127C26.3975 37.8526 26.405 38.6925 26.405 39.54Z" fill="white"/>
<defs>
<clipPath id="bgblur_0_2200_45_clip_path" transform="translate(7.55285 7.55285)"><circle cx="33.4085" cy="33.4085" r="33.4085"/>
</clipPath></defs>
</svg>
